<?xml version="1.0" encoding="iso-8859-1"?>
<!-- Generator: Adobe Illustrator 19.0.0, SVG Export Plug-In . SVG Version: 6.00 Build 0)  -->
<svg version="1.1" id="Capa_1" xmlns="http://www.w3.org/2000/svg" xmlns:xlink="http://www.w3.org/1999/xlink" x="0px" y="0px"
	 viewBox="0 0 473.339 473.339" style="enable-background:new 0 0 473.339 473.339;" xml:space="preserve">
<g>
	<polygon style="fill:#D4E1F4;" points="339.247,15.673 339.247,147.331 281.255,96.653 281.255,15.673 	"/>
	<polygon style="fill:#D4E1F4;" points="217.516,274.808 217.516,318.694 139.672,318.694 139.672,274.808 	"/>
	<polygon style="fill:#D4E1F4;" points="294.839,275.331 294.839,318.694 217.516,318.694 217.516,274.808 	"/>
	<polygon style="fill:#D4E1F4;" points="294.839,202.71 294.839,275.331 217.516,274.808 217.516,202.71 217.516,202.71 	"/>
	<polygon style="fill:#D4E1F4;" points="217.516,202.71 217.516,274.808 139.672,274.808 139.672,202.188 	"/>
</g>
<path style="fill:#4DCFE0;" d="M339.247,147.331l28.735,25.078l-0.522,0.522v191.216c-68.963,0-129.567,19.331-167.184,48.065
	l-0.522-1.045c-29.78-17.763-69.486-28.212-113.371-28.212c-6.269,0-12.539,0-18.808,0.522V172.408l151.51-130.09l62.171,54.335
	L339.247,147.331z M294.839,318.694v-43.363v-72.62h-77.322h-77.845v72.62v43.886h77.845h77.322V318.694z"/>
<g>
	<path style="fill:#3A2C51;" d="M457.843,358.922c-24.033-5.747-49.11-9.404-74.71-9.927V206.89l21.42,18.808
		c6.269,5.747,16.196,5.225,21.943-1.567c5.747-6.269,5.224-16.196-1.567-21.943l-70.008-61.649V15.673
		C354.921,6.792,348.129,0,339.247,0h-57.992c-8.882,0-15.673,6.792-15.673,15.673v46.498l-36.049-31.869
		c-5.747-5.224-14.629-5.224-20.376,0L9.059,201.665c-6.792,5.747-7.314,15.673-1.567,21.943c3.135,3.657,7.314,5.225,12.016,5.225
		c3.657,0,7.314-1.045,10.449-3.657L51.9,206.367v163.004c-8.359,1.045-16.718,2.612-25.078,4.702
		c-8.359,2.09-13.584,10.449-12.016,18.808c2.09,8.359,9.927,13.584,18.808,12.016c12.539-2.612,24.555-4.702,35.527-5.224
		c5.225-1.045,10.971-1.045,17.241-1.045c31.869,0,61.649,5.747,86.727,16.718c-11.494,11.494-19.331,24.033-24.033,37.094
		c-2.612,8.359,1.567,17.241,9.927,19.853c1.567,0.522,3.657,1.045,5.225,1.045c6.269,0,12.539-4.18,14.629-10.449
		c4.702-13.061,14.629-26.122,30.825-38.139c36.571-28.212,95.608-44.931,157.78-44.931h1.567c27.69,0,55.38,3.135,81.502,9.404
		c8.359,2.09,16.718-3.135,18.808-11.494C471.427,369.371,466.202,361.012,457.843,358.922z M296.929,31.347h26.645v81.502
		l-26.645-23.51V31.347z M83.247,367.282V179.722L219.084,63.216L351.786,179.2v169.796c-59.037,2.09-112.849,18.286-152.033,44.408
		c-31.869-16.718-71.576-26.122-113.371-26.122C85.337,367.282,84.292,367.282,83.247,367.282z"/>
	<path style="fill:#3A2C51;" d="M294.839,187.037h-77.322l-77.845-0.522c-4.18,0-8.359,1.567-10.971,4.702
		c-3.135,3.135-4.702,6.792-4.702,10.971v116.506c0,8.882,6.792,15.673,15.673,15.673h155.167c8.882,0,15.673-6.792,15.673-15.673
		V202.71C310.512,193.829,303.721,187.037,294.839,187.037z M279.165,259.657l-45.975-0.522v-40.751h45.975V259.657z
		 M201.843,218.384v40.751h-46.498v-41.273L201.843,218.384z M155.345,290.482h46.498v12.539h-46.498V290.482z M233.19,303.02
		v-12.539l45.975,0.522v12.016L233.19,303.02L233.19,303.02z"/>
</g>
<g>
</g>
<g>
</g>
<g>
</g>
<g>
</g>
<g>
</g>
<g>
</g>
<g>
</g>
<g>
</g>
<g>
</g>
<g>
</g>
<g>
</g>
<g>
</g>
<g>
</g>
<g>
</g>
<g>
</g>
</svg>
